<mxfile host="app.diagrams.net" modified="2022-03-27T03:46:42.089Z" agent="5.0 (Windows NT 10.0; Win64; x64) AppleWebKit/537.36 (KHTML, like Gecko) Chrome/96.0.4664.93 Safari/537.36" etag="FTlLNBqnJ2y-k_CclAb2" version="17.1.3" type="github">
  <diagram name="Page-1" id="9361dd3d-8414-5efd-6122-117bd74ce7a7">
    <mxGraphModel dx="948" dy="524" grid="1" gridSize="10" guides="1" tooltips="1" connect="1" arrows="1" fold="1" page="0" pageScale="1.5" pageWidth="826" pageHeight="1169" background="none" math="0" shadow="0">
      <root>
        <mxCell id="0" />
        <mxCell id="1" parent="0" />
        <mxCell id="69" value="" style="fillColor=#DEE8FF;strokeColor=none" parent="1" vertex="1">
          <mxGeometry y="10" width="1583" height="800" as="geometry" />
        </mxCell>
        <mxCell id="LP91aPNowKj5EOJhhBp3-124" value="实时车况" style="shape=umlFrame;whiteSpace=wrap;html=1;labelBackgroundColor=#BFC8DB;fontSize=9;fillColor=#FFD966;" vertex="1" parent="1">
          <mxGeometry x="31" y="340" width="760" height="130" as="geometry" />
        </mxCell>
        <mxCell id="7" value="DK-Server" style="shadow=1;fillColor=#A2C4C9;strokeColor=none" parent="1" vertex="1">
          <mxGeometry x="247.5" y="63" width="105" height="50" as="geometry" />
        </mxCell>
        <mxCell id="8" value="" style="edgeStyle=none;endArrow=none;dashed=1;entryX=0.19;entryY=0.625;entryDx=0;entryDy=0;entryPerimeter=0;" parent="1" source="7" target="69" edge="1">
          <mxGeometry x="224.8350694444445" y="168" width="100" height="100" as="geometry">
            <mxPoint x="299.7588734567901" y="113" as="sourcePoint" />
            <mxPoint x="300" y="330" as="targetPoint" />
          </mxGeometry>
        </mxCell>
        <mxCell id="6" value="" style="fillColor=#CC4125;strokeColor=#660000" parent="1" vertex="1">
          <mxGeometry x="295" y="170" width="10" height="310" as="geometry" />
        </mxCell>
        <mxCell id="9" value="1、HTTP：发送车控命令" style="edgeStyle=none;verticalLabelPosition=top;verticalAlign=bottom;entryX=0.05;entryY=0.015;entryDx=0;entryDy=0;entryPerimeter=0;" parent="1" edge="1" target="6">
          <mxGeometry x="220" y="92" width="100" height="100" as="geometry">
            <mxPoint x="130" y="174" as="sourcePoint" />
            <mxPoint x="340" y="179.5" as="targetPoint" />
          </mxGeometry>
        </mxCell>
        <mxCell id="33" value="" style="edgeStyle=elbowEdgeStyle;elbow=horizontal;endArrow=none;dashed=1;entryX=0.078;entryY=0.625;entryDx=0;entryDy=0;entryPerimeter=0;" parent="1" source="4" target="69" edge="1">
          <mxGeometry x="230.00000000000003" y="310" width="100" height="100" as="geometry">
            <mxPoint x="230.00000000000003" y="410" as="sourcePoint" />
            <mxPoint x="330" y="310" as="targetPoint" />
          </mxGeometry>
        </mxCell>
        <mxCell id="11" value="" style="edgeStyle=none;verticalLabelPosition=top;verticalAlign=bottom;endArrow=classic;startArrow=classic;dashed=1;entryX=0.1;entryY=0.915;entryDx=0;entryDy=0;entryPerimeter=0;endFill=1;" parent="1" edge="1">
          <mxGeometry x="219" y="332.2588734567901" width="100" height="100" as="geometry">
            <mxPoint x="130" y="458" as="sourcePoint" />
            <mxPoint x="295" y="458.1" as="targetPoint" />
          </mxGeometry>
        </mxCell>
        <mxCell id="LP91aPNowKj5EOJhhBp3-100" value="7、MQTT：实时推送车况" style="edgeLabel;html=1;align=center;verticalAlign=middle;resizable=0;points=[];labelBackgroundColor=#BFC8DB;" vertex="1" connectable="0" parent="11">
          <mxGeometry relative="1" as="geometry">
            <mxPoint x="-2" y="-14" as="offset" />
          </mxGeometry>
        </mxCell>
        <mxCell id="2" value="" style="fillColor=#CC4125;strokeColor=#660000" parent="1" vertex="1">
          <mxGeometry x="119" y="150" width="10" height="330" as="geometry" />
        </mxCell>
        <mxCell id="22" value="TSP" style="shadow=1;fillColor=#FFD966;strokeColor=none" parent="1" vertex="1">
          <mxGeometry x="449" y="60" width="105" height="50" as="geometry" />
        </mxCell>
        <mxCell id="23" value="" style="edgeStyle=none;endArrow=none;dashed=1;entryX=0.317;entryY=0.588;entryDx=0;entryDy=0;entryPerimeter=0;" parent="1" source="22" target="69" edge="1">
          <mxGeometry x="614.4878472222224" y="174.99999999999997" width="100" height="100" as="geometry">
            <mxPoint x="674.6527777777778" y="110" as="sourcePoint" />
            <mxPoint x="502" y="320" as="targetPoint" />
          </mxGeometry>
        </mxCell>
        <mxCell id="21" value="" style="fillColor=#CC4125;strokeColor=#660000" parent="1" vertex="1">
          <mxGeometry x="497" y="170" width="10" height="280" as="geometry" />
        </mxCell>
        <mxCell id="24" value="TBOX" style="shadow=1;fillColor=#FFD966;strokeColor=none" parent="1" vertex="1">
          <mxGeometry x="604.86" y="60" width="105" height="50" as="geometry" />
        </mxCell>
        <mxCell id="34" value="2、HTTP：透传下行车控命令" style="edgeStyle=elbowEdgeStyle;elbow=vertical;verticalLabelPosition=top;verticalAlign=bottom;entryX=0.3;entryY=0.113;entryDx=0;entryDy=0;entryPerimeter=0;exitX=1.5;exitY=0.091;exitDx=0;exitDy=0;exitPerimeter=0;" parent="1" edge="1">
          <mxGeometry width="100" height="100" as="geometry">
            <mxPoint x="307" y="180.01" as="sourcePoint" />
            <mxPoint x="497" y="180.961" as="targetPoint" />
            <Array as="points" />
            <mxPoint x="18" as="offset" />
          </mxGeometry>
        </mxCell>
        <mxCell id="71" value="DK-Server &lt;---&gt; TSP" style="rounded=1;fontStyle=1;fillColor=#FFD966;strokeColor=none" parent="1" vertex="1">
          <mxGeometry x="46" y="20" width="150" height="30" as="geometry" />
        </mxCell>
        <mxCell id="LP91aPNowKj5EOJhhBp3-93" value="" style="edgeStyle=none;verticalLabelPosition=top;verticalAlign=bottom;endArrow=none;startArrow=classic;entryX=0;entryY=1;entryDx=0;entryDy=0;exitX=0.975;exitY=0.54;exitDx=0;exitDy=0;exitPerimeter=0;" edge="1" parent="1">
          <mxGeometry x="375" y="173.49887345679014" width="100" height="100" as="geometry">
            <mxPoint x="305.75" y="274.20000000000005" as="sourcePoint" />
            <mxPoint x="495" y="274" as="targetPoint" />
          </mxGeometry>
        </mxCell>
        <mxCell id="LP91aPNowKj5EOJhhBp3-94" value="5、HTTP：透传上行数据" style="edgeLabel;html=1;align=center;verticalAlign=middle;resizable=0;points=[];" vertex="1" connectable="0" parent="LP91aPNowKj5EOJhhBp3-93">
          <mxGeometry relative="1" as="geometry">
            <mxPoint x="13" y="-10" as="offset" />
          </mxGeometry>
        </mxCell>
        <mxCell id="LP91aPNowKj5EOJhhBp3-96" value="" style="edgeStyle=none;endArrow=none;dashed=1;entryX=0.417;entryY=0.575;entryDx=0;entryDy=0;entryPerimeter=0;" edge="1" parent="1" source="24" target="69">
          <mxGeometry x="582.1950694444446" y="165" width="100" height="100" as="geometry">
            <mxPoint x="657.3600000000001" y="110" as="sourcePoint" />
            <mxPoint x="657" y="330" as="targetPoint" />
          </mxGeometry>
        </mxCell>
        <mxCell id="LP91aPNowKj5EOJhhBp3-95" value="" style="fillColor=#CC4125;strokeColor=#660000" vertex="1" parent="1">
          <mxGeometry x="652.36" y="191" width="10" height="239" as="geometry" />
        </mxCell>
        <mxCell id="LP91aPNowKj5EOJhhBp3-104" value="" style="edgeStyle=none;verticalLabelPosition=top;verticalAlign=bottom;endArrow=none;startArrow=classic;dashed=1;entryX=-0.033;entryY=0.63;entryDx=0;entryDy=0;entryPerimeter=0;" edge="1" parent="1">
          <mxGeometry x="200.67" y="189.49887345679014" width="100" height="100" as="geometry">
            <mxPoint x="130" y="296" as="sourcePoint" />
            <mxPoint x="294.66999999999996" y="296.4" as="targetPoint" />
          </mxGeometry>
        </mxCell>
        <mxCell id="LP91aPNowKj5EOJhhBp3-105" value="6、HTTP：返回车控应答" style="edgeLabel;html=1;align=center;verticalAlign=middle;resizable=0;points=[];" vertex="1" connectable="0" parent="LP91aPNowKj5EOJhhBp3-104">
          <mxGeometry relative="1" as="geometry">
            <mxPoint x="5" y="-12" as="offset" />
          </mxGeometry>
        </mxCell>
        <mxCell id="LP91aPNowKj5EOJhhBp3-106" value="" style="edgeStyle=none;verticalLabelPosition=top;verticalAlign=bottom;endArrow=none;startArrow=classic;dashed=1;entryX=0;entryY=1;entryDx=0;entryDy=0;exitX=0.9;exitY=0.533;exitDx=0;exitDy=0;exitPerimeter=0;" edge="1" parent="1">
          <mxGeometry x="379" y="97.49887345679014" width="100" height="100" as="geometry">
            <mxPoint x="306" y="196.94000000000005" as="sourcePoint" />
            <mxPoint x="499" y="198" as="targetPoint" />
          </mxGeometry>
        </mxCell>
        <mxCell id="LP91aPNowKj5EOJhhBp3-107" value="返回" style="edgeLabel;html=1;align=center;verticalAlign=middle;resizable=0;points=[];" vertex="1" connectable="0" parent="LP91aPNowKj5EOJhhBp3-106">
          <mxGeometry relative="1" as="geometry">
            <mxPoint x="-3" y="-1" as="offset" />
          </mxGeometry>
        </mxCell>
        <mxCell id="LP91aPNowKj5EOJhhBp3-108" value="" style="edgeStyle=none;verticalLabelPosition=top;verticalAlign=bottom;endArrow=classic;startArrow=none;dashed=1;entryX=0;entryY=1;entryDx=0;entryDy=0;endFill=1;startFill=0;" edge="1" parent="1">
          <mxGeometry x="376" y="192.49887345679014" width="100" height="100" as="geometry">
            <mxPoint x="310" y="293" as="sourcePoint" />
            <mxPoint x="496" y="293" as="targetPoint" />
          </mxGeometry>
        </mxCell>
        <mxCell id="LP91aPNowKj5EOJhhBp3-109" value="返回" style="edgeLabel;html=1;align=center;verticalAlign=middle;resizable=0;points=[];" vertex="1" connectable="0" parent="LP91aPNowKj5EOJhhBp3-108">
          <mxGeometry relative="1" as="geometry">
            <mxPoint x="-1" y="-2" as="offset" />
          </mxGeometry>
        </mxCell>
        <mxCell id="LP91aPNowKj5EOJhhBp3-116" value="3、等待车端响应" style="edgeStyle=orthogonalEdgeStyle;html=1;align=left;spacingLeft=2;endArrow=block;rounded=0;entryX=1;entryY=0.5;fontSize=9;entryDx=0;entryDy=0;" edge="1" parent="1">
          <mxGeometry relative="1" as="geometry">
            <mxPoint x="306" y="206" as="sourcePoint" />
            <Array as="points">
              <mxPoint x="336" y="206" />
              <mxPoint x="336" y="257" />
            </Array>
            <mxPoint x="305" y="257" as="targetPoint" />
          </mxGeometry>
        </mxCell>
        <mxCell id="LP91aPNowKj5EOJhhBp3-117" value="" style="edgeStyle=none;verticalLabelPosition=top;verticalAlign=bottom;endArrow=none;startArrow=classic;entryX=0;entryY=1;entryDx=0;entryDy=0;exitX=0.975;exitY=0.54;exitDx=0;exitDy=0;exitPerimeter=0;" edge="1" parent="1">
          <mxGeometry x="375" y="324.49887345679014" width="100" height="100" as="geometry">
            <mxPoint x="305.75" y="425.20000000000005" as="sourcePoint" />
            <mxPoint x="495" y="425" as="targetPoint" />
          </mxGeometry>
        </mxCell>
        <mxCell id="LP91aPNowKj5EOJhhBp3-118" value="5’、HTTP：透传上行数据" style="edgeLabel;html=1;align=center;verticalAlign=middle;resizable=0;points=[];" vertex="1" connectable="0" parent="LP91aPNowKj5EOJhhBp3-117">
          <mxGeometry relative="1" as="geometry">
            <mxPoint x="11" y="-10" as="offset" />
          </mxGeometry>
        </mxCell>
        <mxCell id="LP91aPNowKj5EOJhhBp3-119" value="" style="edgeStyle=none;verticalLabelPosition=top;verticalAlign=bottom;endArrow=classic;startArrow=none;dashed=1;entryX=-0.25;entryY=0.95;entryDx=0;entryDy=0;endFill=1;startFill=0;entryPerimeter=0;" edge="1" parent="1">
          <mxGeometry x="381" y="337.49887345679014" width="100" height="100" as="geometry">
            <mxPoint x="310" y="441" as="sourcePoint" />
            <mxPoint x="494.5" y="439.5" as="targetPoint" />
          </mxGeometry>
        </mxCell>
        <mxCell id="LP91aPNowKj5EOJhhBp3-120" value="返回" style="edgeLabel;html=1;align=center;verticalAlign=middle;resizable=0;points=[];" vertex="1" connectable="0" parent="LP91aPNowKj5EOJhhBp3-119">
          <mxGeometry relative="1" as="geometry">
            <mxPoint x="-3" y="-2" as="offset" />
          </mxGeometry>
        </mxCell>
        <mxCell id="4" value="DK-Plugin" style="shadow=1;fillColor=#A2C4C9;strokeColor=none" parent="1" vertex="1">
          <mxGeometry x="71.5" y="60" width="105" height="50" as="geometry" />
        </mxCell>
        <mxCell id="LP91aPNowKj5EOJhhBp3-126" value="4’、复用已有MQTT通道&#xa;            （下行车控、上行车况等）" style="fillColor=#BFC8DB" vertex="1" parent="1">
          <mxGeometry x="482" y="350" width="200" height="49.48" as="geometry" />
        </mxCell>
        <mxCell id="LP91aPNowKj5EOJhhBp3-127" value="单向通信&#xa;小于200ms" style="edgeStyle=elbowEdgeStyle;elbow=horizontal;startArrow=open;endArrow=open;labelPosition=left;align=left;fontSize=9;" edge="1" parent="1">
          <mxGeometry x="-29" y="18.74000000000001" width="100" height="100" as="geometry">
            <mxPoint x="727" y="350" as="sourcePoint" />
            <mxPoint x="727" y="400" as="targetPoint" />
            <mxPoint x="4" as="offset" />
          </mxGeometry>
        </mxCell>
        <mxCell id="LP91aPNowKj5EOJhhBp3-128" value="" style="edgeStyle=none;verticalLabelPosition=top;verticalAlign=bottom;endArrow=none;startArrow=none;exitX=0.9;exitY=0.533;exitDx=0;exitDy=0;exitPerimeter=0;startFill=0;" edge="1" parent="1">
          <mxGeometry x="725" y="119.23887345679015" width="100" height="100" as="geometry">
            <mxPoint x="682" y="349.94000000000005" as="sourcePoint" />
            <mxPoint x="742" y="350" as="targetPoint" />
          </mxGeometry>
        </mxCell>
        <mxCell id="LP91aPNowKj5EOJhhBp3-129" value="" style="edgeStyle=none;verticalLabelPosition=top;verticalAlign=bottom;endArrow=none;startArrow=none;exitX=0.9;exitY=0.533;exitDx=0;exitDy=0;exitPerimeter=0;startFill=0;" edge="1" parent="1">
          <mxGeometry x="725" y="168.23887345679015" width="100" height="100" as="geometry">
            <mxPoint x="682" y="398.94000000000005" as="sourcePoint" />
            <mxPoint x="742" y="399" as="targetPoint" />
          </mxGeometry>
        </mxCell>
        <mxCell id="74" value="4、复用已有MQTT通道&#xa;            （下行车控、上行车况等）" style="fillColor=#BFC8DB" parent="1" vertex="1">
          <mxGeometry x="480" y="206.52" width="200" height="49.48" as="geometry" />
        </mxCell>
        <mxCell id="LP91aPNowKj5EOJhhBp3-121" value="车控" style="shape=umlFrame;whiteSpace=wrap;html=1;labelBackgroundColor=#BFC8DB;fontSize=9;fillColor=#FFD966;" vertex="1" parent="1">
          <mxGeometry x="30" y="131.26" width="760" height="188.74" as="geometry" />
        </mxCell>
        <mxCell id="87" value="单向通信&#xa;小于200ms" style="edgeStyle=elbowEdgeStyle;elbow=horizontal;startArrow=open;endArrow=open;labelPosition=left;align=left;fontSize=9;" parent="1" edge="1">
          <mxGeometry y="6" width="100" height="100" as="geometry">
            <mxPoint x="726" y="206" as="sourcePoint" />
            <mxPoint x="726" y="256" as="targetPoint" />
            <mxPoint x="4" as="offset" />
          </mxGeometry>
        </mxCell>
        <mxCell id="LP91aPNowKj5EOJhhBp3-110" value="" style="edgeStyle=none;verticalLabelPosition=top;verticalAlign=bottom;endArrow=none;startArrow=none;exitX=0.9;exitY=0.533;exitDx=0;exitDy=0;exitPerimeter=0;startFill=0;" edge="1" parent="1">
          <mxGeometry x="753" y="107.49887345679014" width="100" height="100" as="geometry">
            <mxPoint x="680" y="206.94000000000005" as="sourcePoint" />
            <mxPoint x="740" y="207" as="targetPoint" />
          </mxGeometry>
        </mxCell>
        <mxCell id="LP91aPNowKj5EOJhhBp3-112" value="" style="edgeStyle=none;verticalLabelPosition=top;verticalAlign=bottom;endArrow=none;startArrow=none;exitX=0.9;exitY=0.533;exitDx=0;exitDy=0;exitPerimeter=0;startFill=0;" edge="1" parent="1">
          <mxGeometry x="753" y="156.49887345679014" width="100" height="100" as="geometry">
            <mxPoint x="680" y="255.94000000000005" as="sourcePoint" />
            <mxPoint x="740" y="256" as="targetPoint" />
          </mxGeometry>
        </mxCell>
      </root>
    </mxGraphModel>
  </diagram>
</mxfile>
